PathFileType	4	(X/Y/Z)	C:\Users\WrightLab\Desktop\Jo\P1.2Trial8.trc
DataRate	CameraRate	NumFrames	NumMarkers	Units	OrigDataRate	OrigDataStartFrame	OrigNumFrames
100.00	100.00	       76	19	mm	100.00	119	       946
Frame#	Time	Headset_Front			Headset_Back			Headset_Left			Headset_Right			Left_Shoulder			Right_Shoulder			Sternum			C7			Left Elbow			Right Elbow			Left Wrist			Right Wrist			Left ASIS			Right ASIS			S2			Left Knee			Right Knee			Left Ankle			Right Ankle			
		X1	Y1	Z1	X2	Y2	Z2	X3	Y3	Z3	X4	Y4	Z4	X5	Y5	Z5	X6	Y6	Z6	X7	Y7	Z7	X8	Y8	Z8	X9	Y9	Z9	X10	Y10	Z10	X11	Y11	Z11	X12	Y12	Z12	X13	Y13	Z13	X14	Y14	Z14	X15	Y15	Z15	X16	Y16	Z16	X17	Y17	Z17	X18	Y18	Z18	X19	Y19	Z19	

119	1.180																-275.69714	1048.17297	1642.83032																-331.61591	915.82904	1412.91333																						
120	1.190																-276.74741	1049.42139	1636.88013																-330.88242	916.63226	1407.68506																						
121	1.200																-277.51788	1050.26111	1632.34290																-330.56232	917.93408	1402.68604													-438.41211	463.59903	1716.53052							
122	1.210																-278.28525	1050.96240	1628.43909																-330.50653	918.51465	1398.62134													-438.72958	463.16473	1715.39551							
123	1.220																-278.78320	1051.51331	1624.27417																-330.15643	919.91632	1394.84656													-439.32281	462.44574	1716.07996							
124	1.230																-279.23203	1051.96497	1621.19531																-329.62689	920.80963	1391.69153													-439.85846	461.82489	1715.19836							
125	1.240																-279.86380	1052.28235	1618.10400																-329.41232	921.80255	1388.31592													-440.61212	462.89404	1710.57483							
126	1.250																-280.08041	1052.14014	1617.05896																-329.48636	922.50189	1385.54358													-441.61038	462.83978	1710.48096							
127	1.260																-280.15918	1052.14294	1614.79797																-329.19257	923.15985	1382.87012													-441.90448	462.31616	1709.31763							
128	1.270																-279.98334	1052.04663	1613.06201																-329.51794	923.61938	1380.83667													-442.00946	460.28729	1708.93701							
129	1.280																-280.04471	1051.63440	1611.62427																-329.69067	924.39124	1379.62549													-442.47565	461.59183	1702.49304							
130	1.290																-279.89822	1051.03027	1610.33838																-330.38412	924.85175	1377.78503													-442.57928	461.05725	1702.60205							
131	1.300																-279.81824	1050.70837	1609.83557																-331.30566	924.91425	1376.56641													-442.62695	461.23447	1703.47375							
132	1.310																-279.92090	1050.30640	1609.08630																-331.90689	924.97998	1375.24475													-442.44781	460.34885	1702.42944							
133	1.320																-280.02783	1050.06079	1607.95435																-333.16882	925.15802	1374.24512													-441.30307	460.78940	1700.37878							
134	1.330																-280.18027	1049.83142	1607.47034																-334.32791	925.18329	1373.38318													-441.32858	460.10959	1699.31824							
135	1.340																-280.23709	1049.31152	1606.79016																-335.32974	925.18176	1372.87451													-440.77069	460.19620	1698.71509							
136	1.350																-280.41586	1049.18982	1606.72314																-335.92261	925.56226	1372.32349													-439.39380	459.40799	1696.67383							
137	1.360																-280.88431	1048.99731	1606.50146																-336.59164	925.61975	1371.61121													-438.72021	459.60693	1696.27234							
138	1.370																-281.29037	1048.86731	1606.06934																-337.40747	925.63293	1371.38550													-439.29248	461.20410	1691.53369							
139	1.380																-281.86526	1048.58728	1605.28894																-338.28958	925.59863	1369.94092													-438.14957	460.88580	1691.09363							
140	1.390																-282.43167	1048.36133	1605.18750																-338.72873	925.44171	1369.41284													-437.01025	461.02090	1688.81482							
141	1.400																-282.97113	1048.08142	1604.07764																-338.71225	925.43756	1369.30994													-436.58054	460.91974	1688.85449							
142	1.410																-283.83850	1048.05701	1603.72986																-338.86966	925.13501	1368.04932													-436.21243	460.72632	1688.89624							
143	1.420																-284.39865	1048.27319	1602.92981																-338.78641	925.38373	1367.06702													-435.66922	459.86072	1689.21545							
144	1.430																-285.19995	1048.63123	1602.12891																-338.81638	925.47693	1366.44006													-435.20065	460.04562	1688.59912							
145	1.440																-286.11014	1048.89746	1601.03979																-339.09955	925.88092	1365.66565													-434.00793	460.43164	1685.81091							
146	1.450																-286.81531	1048.97876	1599.94885																-339.10678	925.83942	1365.05676													-433.47342	459.97052	1686.83643							
147	1.460																-287.25787	1049.24731	1599.63269																-339.11969	926.58295	1364.37170													-433.45926	460.59729	1685.16895							
148	1.470																-287.73242	1049.44189	1599.22156																-339.09537	926.64471	1362.97241													-433.39246	460.54749	1685.17761							
149	1.480																-288.00211	1049.83167	1597.84399																-339.33704	927.16656	1362.12964													-433.31717	460.52914	1685.18445							
150	1.490																-288.39523	1049.82605	1596.63904																-339.55219	927.28937	1361.09399													-433.50079	460.35062	1684.55151							
151	1.500																-288.69312	1049.76917	1596.16541																-339.61670	927.60608	1360.57520													-433.51538	460.32245	1684.55261							
152	1.510																-289.09348	1050.51355	1595.57031																-339.72223	927.72784	1360.27637													-433.60431	459.92590	1684.10181							
153	1.520																-288.96548	1050.25732	1595.11414																-339.58859	928.46643	1358.77271													-433.24594	460.30814	1683.43005							
154	1.530																-289.26202	1050.41821	1593.87048																-340.17215	929.20520	1357.28906													-433.20639	460.24850	1683.43738							
155	1.540																-289.26779	1050.56567	1592.78503																-340.09756	929.35120	1355.97595													-432.64542	459.95471	1681.26501							
156	1.550																-289.03329	1050.64990	1592.37903																-339.78171	929.74609	1355.25977													-432.59650	460.39655	1682.19226							
157	1.560																-288.91260	1051.02661	1591.94604																-339.49747	930.48602	1354.45239													-432.52588	460.38504	1682.19824							
158	1.570																-288.91083	1050.99792	1591.93396																-339.14896	931.48273	1353.37634													-431.83517	460.81296	1680.93408							
159	1.580																-288.91122	1050.94043	1591.25989																-339.22363	931.81482	1352.04797													-431.79517	460.75000	1680.94177							
160	1.590																-288.92630	1051.04553	1590.59216																-338.48190	932.43835	1351.33020													-431.77850	460.73270	1680.94421							
161	1.600																-288.82596	1051.22913	1589.79297																-338.02820	932.97980	1350.87402													-431.72498	460.70047	1680.95056							
162	1.610																-288.61002	1051.50269	1589.31067																-337.78177	933.54199	1350.40930													-431.71158	460.66483	1680.95422							
163	1.620																-288.48349	1051.53931	1589.33789																-337.13696	934.15137	1349.36694													-431.69617	460.66306	1680.95544							
164	1.630																-288.28735	1051.69482	1589.31860																-336.71112	934.58319	1348.73535													-431.71216	460.64328	1680.95581							
165	1.640																-287.96106	1051.86719	1589.27966																-336.18008	934.91730	1348.56372													-431.64999	460.65793	1680.95923							
166	1.650																-287.79907	1051.97290	1589.14221																-335.82819	935.06354	1348.10559													-431.65866	460.61127	1680.96204							
167	1.660																-287.58823	1052.09473	1589.21338																-335.20499	935.51263	1347.18237													-431.63342	460.38132	1680.69971							
168	1.670																-287.38089	1052.01294	1588.72302																-334.38123	936.02466	1347.23572													-431.54620	460.30435	1680.71179							
169	1.680																-287.12540	1052.17810	1588.70532																-333.94904	936.04114	1347.11292													-431.34836	460.54309	1680.07300							
170	1.690																-286.93854	1052.26758	1588.76062																-333.50180	936.27594	1346.55530													-431.27362	460.41684	1680.08789							
171	1.700																-286.47305	1052.36890	1588.70007																-333.07611	936.36395	1346.02930													-431.20123	460.34744	1680.09827							
172	1.710																-286.14734	1052.56873	1587.88550																-332.48044	936.28839	1345.97998													-431.20450	460.26440	1680.10413							
173	1.720																-285.98770	1052.52734	1587.87756																-332.29367	936.28534	1345.93982													-431.13071	459.94751	1679.96631							
174	1.730																-285.56577	1052.62109	1587.18457																-331.73990	936.48248	1346.25586													-430.51962	460.16663	1678.55713							
175	1.740																-285.41400	1052.62207	1587.51721																-331.26495	936.30890	1345.99683													-430.17892	460.14288	1677.89612							
176	1.750																-285.16867	1052.48828	1586.99207																-330.20035	935.85059	1345.97375													-429.68115	460.23364	1677.17603							
177	1.760																-284.71658	1052.50330	1587.03003																-329.68689	935.89191	1345.85608													-429.56427	460.11261	1677.19336							
178	1.770																-284.26166	1052.42468	1587.06165																-328.59265	935.92004	1345.89612													-429.60999	459.99734	1676.51465							
179	1.780																-283.80618	1052.18359	1586.96912																-327.76208	935.81073	1346.15479													-429.54169	459.67181	1676.37683							
180	1.790																-283.12415	1052.25696	1587.01733																-327.04190	935.69598	1345.79932													-429.19919	459.33774	1675.37268							
181	1.800																-282.48230	1052.30322	1586.90405																-325.70358	935.35779	1346.22351													-428.80582	458.53696	1675.67334							
182	1.810																-281.97342	1052.37549	1587.04980																-325.07385	935.29828	1346.05969													-428.16684	457.71204	1675.39355							
183	1.820																-281.39920	1052.29126	1587.19751																-324.31366	935.04858	1346.26111													-428.13943	457.64780	1675.40027							
184	1.830																-281.24939	1052.20129	1587.17249																-323.12283	935.31195	1346.79675													-428.00150	457.56296	1675.41650							
185	1.840																-280.65366	1051.98828	1587.54456																-322.15543	934.71814	1346.44971													-427.22711	458.24197	1673.91870							
186	1.850																-279.87488	1051.86035	1588.09033																-320.89352	934.13312	1346.77930													-427.04694	458.09250	1673.57568							
187	1.860																-278.79767	1051.29846	1588.78198																-320.26648	933.74957	1347.15869													-426.97971	458.02054	1673.58582							
188	1.870																-277.85913	1051.44250	1589.30884																-319.40756	933.54462	1347.02197													-426.83612	457.94202	1673.60193							
189	1.880																-277.06918	1050.91772	1589.34619																-317.76685	932.58539	1347.31714													-426.68210	457.80905	1673.62268							
190	1.890																-276.50650	1050.40845	1589.82300																-316.48279	932.66730	1347.94568													-426.25064	458.05817	1672.96753							
191	1.900																-275.60193	1050.30383	1589.98523																-315.83389	932.22601	1348.59167													-426.19016	458.05344	1672.97229							
192	1.910																-274.71994	1049.85999	1590.84363																-314.49634	932.04602	1348.91382													-426.10535	457.99243	1672.98279							
193	1.920																-273.61664	1049.65515	1591.49756																-313.00122	931.59406	1349.65857													-426.02124	457.94003	1672.99268							
194	1.930																-272.57974	1049.08569	1593.16296																-311.77448	931.10760	1350.45715													-425.97858	457.92953	1672.99646							
